<svg height="510" width="720" xmlns="http://www.w3.org/2000/svg">
<rect height="510" fill="#555" width="720"></rect>
<text fill="#7f7" font-family="Courier New" font-size="12" xml:space="preserve">
<tspan x="10" y="26">11 megabytes installed</tspan>
<tspan x="10" y="42"></tspan>
<tspan x="10" y="58">node_modules</tspan>
<tspan x="10" y="74">└─┬ node-uglifier@0.5.41 </tspan>
<tspan x="10" y="90">  ├─┬ fs-extra@2.0.0 </tspan>
<tspan x="10" y="106">  │ ├── graceful-fs@4.1.11 </tspan>
<tspan x="10" y="122">  │ └── jsonfile@2.4.0 </tspan>
<tspan x="10" y="138">  ├── optparse@1.0.5 </tspan>
<tspan x="10" y="154">  ├── seedrandom@2.4.3 </tspan>
<tspan x="10" y="170">  ├─┬ sugar@2.0.4 </tspan>
<tspan x="10" y="186">  │ └── sugar-core@2.0.4 </tspan>
<tspan x="10" y="202">  ├─┬ uglify-js-harmony@2.6.2 </tspan>
<tspan x="10" y="218">  │ ├── async@0.2.10 </tspan>
<tspan x="10" y="234">  │ ├── source-map@0.5.6 </tspan>
<tspan x="10" y="250">  │ ├── uglify-to-browserify@1.0.2 </tspan>
<tspan x="10" y="266">  │ └─┬ yargs@3.10.0 </tspan>
<tspan x="10" y="282">  │   ├── camelcase@1.2.1 </tspan>
<tspan x="10" y="298">  │   ├─┬ cliui@2.1.0 </tspan>
<tspan x="10" y="314">  │   │ ├─┬ center-align@0.1.3 </tspan>
<tspan x="10" y="330">  │   │ │ ├─┬ align-text@0.1.4 </tspan>
<tspan x="10" y="346">  │   │ │ │ ├─┬ kind-of@3.1.0 </tspan>
<tspan x="10" y="362">  │   │ │ │ │ └── is-buffer@1.1.5 </tspan>
<tspan x="10" y="378">  │   │ │ │ ├── longest@1.0.1 </tspan>
<tspan x="10" y="394">  │   │ │ │ └── repeat-string@1.6.1 </tspan>
<tspan x="10" y="410">  │   │ │ └── lazy-cache@1.0.4 </tspan>
<tspan x="10" y="426">  │   │ ├── right-align@0.1.3 </tspan>
<tspan x="10" y="442">  │   │ └── wordwrap@0.0.2 </tspan>
<tspan x="10" y="458">  │   ├── decamelize@1.2.0 </tspan>
<tspan x="10" y="474">  │   └── window-size@0.1.0 </tspan>
<tspan x="10" y="490">  └── underscore@1.8.3</tspan>
</text>
</svg>
